<svg width="27" height="26" viewBox="0 0 27 26" fill="none" xmlns="http://www.w3.org/2000/svg">
<path d="M18.75 13.75L13.5625 8.6875C12.9167 8.0625 12.3698 7.36979 11.9219 6.60938C11.474 5.84896 11.25 5.02083 11.25 4.125C11.25 2.97917 11.651 2.00521 12.4531 1.20312C13.2552 0.401042 14.2292 0 15.375 0C16.0417 0 16.6667 0.140625 17.25 0.421875C17.8333 0.703125 18.3333 1.08333 18.75 1.5625C19.1667 1.08333 19.6667 0.703125 20.25 0.421875C20.8333 0.140625 21.4583 0 22.125 0C23.2708 0 24.2448 0.401042 25.0469 1.20312C25.849 2.00521 26.25 2.97917 26.25 4.125C26.25 5.02083 26.0312 5.84896 25.5938 6.60938C25.1562 7.36979 24.6146 8.0625 23.9688 8.6875L18.75 13.75ZM18.75 10.25L22.1562 6.90625C22.5521 6.51042 22.9167 6.08854 23.25 5.64062C23.5833 5.19271 23.75 4.6875 23.75 4.125C23.75 3.66667 23.5938 3.28125 23.2812 2.96875C22.9688 2.65625 22.5833 2.5 22.125 2.5C21.8333 2.5 21.5573 2.55729 21.2969 2.67188C21.0365 2.78646 20.8125 2.95833 20.625 3.1875L18.75 5.4375L16.875 3.1875C16.6875 2.95833 16.4635 2.78646 16.2031 2.67188C15.9427 2.55729 15.6667 2.5 15.375 2.5C14.9167 2.5 14.5312 2.65625 14.2188 2.96875C13.9062 3.28125 13.75 3.66667 13.75 4.125C13.75 4.6875 13.9167 5.19271 14.25 5.64062C14.5833 6.08854 14.9479 6.51042 15.3438 6.90625L18.75 10.25ZM7.5 20.625L16.1875 23L23.625 20.6875C23.5208 20.5 23.3698 20.3385 23.1719 20.2031C22.974 20.0677 22.75 20 22.5 20H16.1875C15.625 20 15.1771 19.9792 14.8438 19.9375C14.5104 19.8958 14.1667 19.8125 13.8125 19.6875L10.9062 18.7188L11.5938 16.2812L14.125 17.125C14.4792 17.2292 14.8958 17.3125 15.375 17.375C15.8542 17.4375 16.5625 17.4792 17.5 17.5C17.5 17.2708 17.4323 17.0521 17.2969 16.8438C17.1615 16.6354 17 16.5 16.8125 16.4375L9.5 13.75H7.5V20.625ZM0 25V11.25H9.5C9.64583 11.25 9.79167 11.2656 9.9375 11.2969C10.0833 11.3281 10.2188 11.3646 10.3438 11.4062L17.6875 14.125C18.375 14.375 18.9323 14.8125 19.3594 15.4375C19.7865 16.0625 20 16.75 20 17.5H22.5C23.5417 17.5 24.4271 17.8438 25.1562 18.5312C25.8854 19.2188 26.25 20.125 26.25 21.25V22.5L16.25 25.625L7.5 23.1875V25H0ZM2.5 22.5H5V13.75H2.5V22.5Z" fill="#1152D4"/>
</svg>
